<?xml version="1.0" standalone="no"?>
<!DOCTYPE svg PUBLIC "-//W3C//DTD SVG 20010904//EN"
 "http://www.w3.org/TR/2001/REC-SVG-20010904/DTD/svg10.dtd">
<svg version="1.0" xmlns="http://www.w3.org/2000/svg"
 width="700.000000pt" height="700.000000pt" viewBox="0 0 700.000000 700.000000"
 preserveAspectRatio="xMidYMid meet">
<metadata>
Created by potrace 1.11, written by Peter Selinger 2001-2013
</metadata>
<g transform="translate(0.000000,700.000000) scale(0.100000,-0.100000)"
fill="#000000" stroke="none">
<path d="M6160 5649 c-25 -3 -70 -9 -100 -12 -82 -9 -559 -66 -643 -77 -39 -5
-101 -12 -137 -16 -36 -3 -72 -7 -81 -9 -8 -2 -42 -6 -75 -9 -78 -8 -222 -26
-254 -31 -14 -2 -52 -6 -85 -9 -33 -3 -76 -8 -95 -11 -58 -8 -269 -34 -334
-40 -21 -3 -57 -7 -80 -10 -85 -11 -112 -15 -166 -20 -30 -3 -71 -8 -90 -10
-90 -12 -128 -16 -160 -20 -29 -3 -262 -31 -415 -50 -22 -2 -62 -7 -90 -10
-61 -7 -286 -34 -335 -40 -19 -2 -71 -9 -115 -14 -44 -6 -105 -13 -135 -16
-30 -3 -66 -8 -80 -10 -34 -5 -104 -13 -170 -20 -114 -12 -146 -15 -165 -19
-20 -4 -120 -16 -182 -22 -17 -1 -49 -5 -70 -8 -37 -5 -158 -20 -258 -31 -68
-7 -111 -12 -250 -30 -66 -8 -145 -17 -175 -20 -30 -3 -63 -8 -72 -11 -9 -3
-27 -7 -39 -9 -47 -9 -131 -58 -177 -103 l-47 -46 -350 -2 c-390 -1 -411 -4
-518 -68 -96 -58 -163 -144 -197 -254 -16 -51 -19 -101 -19 -452 -1 -358 0
-398 16 -429 27 -53 61 -72 145 -81 229 -26 396 -168 453 -386 50 -191 -35
-409 -204 -527 -49 -34 -121 -70 -121 -60 0 3 -6 1 -13 -5 -7 -6 -53 -16 -102
-23 -58 -7 -100 -18 -118 -31 -57 -40 -57 -43 -57 -456 0 -212 4 -403 10 -433
31 -164 177 -317 340 -355 59 -13 4955 -12 5022 2 156 31 291 154 343 309 11
35 17 102 19 222 1 130 -9 117 91 128 28 3 61 8 75 10 14 2 50 6 80 10 30 3
71 8 90 10 19 2 60 7 90 11 30 3 69 8 85 10 17 2 53 6 80 9 53 6 108 12 165
20 19 3 58 7 85 10 122 13 213 55 290 132 101 102 142 217 131 368 -3 50 -8
99 -10 111 -2 12 -7 44 -10 72 -3 29 -9 75 -12 104 -3 28 -7 58 -9 67 -2 9 -6
47 -9 83 -4 37 -8 75 -10 85 -2 10 -7 47 -10 83 -8 88 -12 103 -30 139 -27 51
-58 64 -155 68 -110 3 -171 16 -247 53 -115 55 -212 164 -256 287 -27 75 -32
215 -11 287 54 183 188 317 361 361 102 26 121 35 148 71 27 35 32 68 21 154
-4 30 -9 78 -12 105 -3 28 -7 61 -9 75 -3 14 -8 52 -11 85 -3 33 -8 67 -10 75
-2 8 -7 47 -10 85 -3 39 -8 84 -10 100 -3 17 -7 50 -10 75 -3 25 -9 60 -14 78
-5 17 -8 32 -5 32 2 0 -10 28 -27 62 -90 178 -280 276 -479 247z m168 -296
c51 -34 78 -86 87 -168 3 -33 8 -73 10 -90 13 -94 46 -374 47 -395 2 -42 -1
-50 -17 -50 -9 0 -46 -15 -83 -34 -266 -134 -432 -400 -433 -696 -2 -372 264
-695 630 -764 47 -9 86 -17 87 -19 4 -4 11 -50 19 -122 3 -33 8 -71 10 -85 2
-14 8 -65 14 -115 6 -49 13 -108 16 -130 14 -112 15 -140 5 -176 -14 -50 -78
-115 -123 -123 -55 -10 -147 -22 -247 -31 -49 -5 -210 -24 -250 -30 -14 -2
-50 -6 -80 -10 -84 -9 -211 -25 -251 -31 l-36 -5 -1 120 c0 99 -3 126 -18 152
-28 48 -62 67 -129 74 -141 14 -270 76 -351 168 -242 275 -133 684 219 816 31
12 52 16 140 26 63 7 111 39 129 84 6 16 10 181 10 417 0 334 -2 400 -16 448
-42 145 -137 247 -282 302 l-69 27 -1507 1 c-829 0 -1506 2 -1504 4 4 3 25 6
116 17 134 15 229 26 260 30 127 16 202 25 250 30 30 3 66 8 80 10 14 2 50 7
80 10 30 3 89 10 130 15 75 9 163 20 210 25 67 7 157 18 173 21 10 2 46 6 80
9 34 3 69 8 77 10 8 2 46 6 83 10 37 3 76 8 85 10 9 1 44 6 77 9 65 7 89 10
210 25 44 6 105 13 135 16 30 3 73 8 95 11 22 2 56 7 75 9 37 5 184 22 260 31
25 3 59 7 77 9 17 3 73 9 125 15 51 6 109 13 128 15 59 7 123 15 160 20 19 2
60 7 90 10 30 3 71 8 90 10 19 3 54 7 78 10 23 3 60 7 82 10 80 10 116 14 170
20 30 3 66 8 80 10 14 3 52 7 85 10 33 3 85 9 115 13 127 18 172 15 218 -15z
m-2163 -1566 c0 -804 1 -855 18 -881 66 -100 218 -79 246 34 5 19 9 396 9 845
1 446 1 820 1 833 l1 22 448 -2 c499 -3 483 -1 539 -75 l28 -36 3 -316 3 -316
-88 -27 c-254 -78 -451 -289 -518 -553 -21 -82 -28 -229 -14 -300 5 -27 12
-62 14 -78 19 -103 103 -253 197 -348 56 -57 192 -159 212 -159 4 0 25 -9 49
-19 23 -11 65 -26 92 -34 l50 -14 0 -316 0 -315 -31 -39 c-60 -75 -49 -74
-545 -71 l-441 3 -2 151 c-1 139 -3 152 -24 179 -46 59 -123 72 -183 32 -57
-38 -65 -65 -64 -225 l1 -142 -1876 0 c-1798 0 -1877 1 -1915 19 -96 44 -102
69 -101 429 l1 293 90 30 c122 41 214 97 305 188 213 211 285 514 190 798 -64
193 -197 347 -385 446 -52 28 -165 69 -165 61 0 -3 -8 0 -19 5 -17 10 -18 28
-17 319 l1 308 28 43 c18 27 44 50 70 62 41 18 97 19 1917 19 l1875 0 0 -853z"/>
<path d="M2244 4160 c-62 -31 -86 -71 -92 -150 l-5 -68 -41 -12 c-130 -38
-269 -149 -341 -271 -45 -77 -90 -212 -99 -294 -3 -33 -6 -195 -7 -360 l0
-300 -80 -80 c-44 -45 -83 -94 -88 -111 -11 -40 7 -92 42 -118 28 -21 34 -21
775 -21 828 0 791 -3 824 66 27 55 11 90 -82 184 l-80 80 0 325 c-1 285 -4
335 -21 408 -56 239 -212 423 -413 486 -56 18 -56 18 -57 59 0 23 -2 49 -4 57
-3 8 -6 22 -8 30 -11 52 -91 110 -153 110 -16 0 -47 -9 -70 -20z m189 -435
c63 -16 147 -66 188 -111 60 -65 112 -180 123 -271 5 -37 8 -299 7 -599 l-1
-150 -430 0 c-314 1 -433 4 -438 13 -7 11 -6 705 1 733 2 8 7 33 12 55 12 60
62 158 107 210 101 114 271 162 431 120z"/>
<path d="M4232 2540 c-73 -45 -85 -152 -24 -212 35 -36 104 -48 152 -28 89 37
102 175 23 234 -39 29 -111 32 -151 6z"/>
<path d="M2096 2261 c-2 -3 4 -30 13 -59 48 -154 237 -204 355 -94 33 32 65
96 66 133 l0 25 -216 0 c-118 0 -217 -2 -218 -5z"/>
</g>
</svg>
