<svg xmlns="http://www.w3.org/2000/svg" viewBox="0 0 512 315">
    <path fill="white" d="M512 223l-6-51a10 10 0 0 0-11-8 37 37 0 0 1-9-74 10 10 0 0 0 9-11l-6-50a33 33 0 0 0-37-29L101 42a33 33 0 0 0-22 12H33A33 33 0 0 0 0 87v51a10 10 0 0 0 10 10 37 37 0 0 1 0 74 10 10 0 0 0-10 10v50a33 33 0 0 0 33 33h354a33 33 0 0 0 32-33v-15l64-8a33 33 0 0 0 29-36zm-113 26v33a13 13 0 0 1-12 13h-62v-19a10 10 0 0 0-20 0v19H33a13 13 0 0 1-13-13v-41a57 57 0 0 0 30-16 57 57 0 0 0 0-80 57 57 0 0 0-30-16V87a13 13 0 0 1 13-13h272v122a10 10 0 1 0 20 0V74h62a13 13 0 0 1 12 13v42a57 57 0 0 0 0 112v8zm90-14a13 13 0 0 1-8 4l-62 8v-15a10 10 0 0 0-9-10 37 37 0 0 1 0-74 10 10 0 0 0 9-10V87a33 33 0 0 0-32-33H168l287-34a13 13 0 0 1 14 11l5 42a57 57 0 0 0 13 111l5 41a13 13 0 0 1-3 10z"/>
    <path fill="white" d="M228 226l-11-10v-40c0-25-13-45-36-51v-5a12 12 0 1 0-24 0v5c-23 6-36 26-36 51v40l-10 10a8 8 0 0 0 6 14h105a8 8 0 0 0 6-14zm-27-2h-64v-48c0-20 12-36 32-36s32 16 32 36zm-32 40a16 16 0 0 0 16-16h-32a16 16 0 0 0 16 16z"/>
</svg>